<svg xmlns="http://www.w3.org/2000/svg" width="1128.582" height="1079.201" viewBox="0 0 1128.582 1079.201">
  <g id="line" transform="translate(-0.047 0.015)" opacity="0.5">
    <path id="Path_3493" data-name="Path 3493" d="M7.143,463.556A447.925,447.925,0,0,1,191.253,19.375" transform="translate(0 64.594)" fill="none" stroke="#135cfd" stroke-linecap="round" stroke-linejoin="round" stroke-width="0.642"/>
    <path id="Path_3494" data-name="Path 3494" d="M28.157,672.918C-33.4,413.977,78.138,144.589,304.887,4.812" transform="translate(37.438 15.057)" fill="none" stroke="#135cfd" stroke-linecap="round" stroke-linejoin="round" stroke-width="0.642"/>
    <path id="Path_3495" data-name="Path 3495" d="M97.144,824.082A598.561,598.561,0,0,1,48.293,703.224,591.019,591.019,0,0,1,27.115,577.848a569.733,569.733,0,0,1,6.777-125.941A562.173,562.173,0,0,1,214.614,125.2,596.071,596.071,0,0,1,318.246,51.213,602.86,602.86,0,0,1,437.975.385" transform="translate(87.614 0)" fill="none" stroke="#135cfd" stroke-linecap="round" stroke-linejoin="round" stroke-width="0.642"/>
    <g id="Group_4060" data-name="Group 4060" transform="translate(193.794 127.738)">
      <path id="Path_3496" data-name="Path 3496" d="M49.4,257.763a478.244,478.244,0,0,1,78.5-126.788A570.727,570.727,0,0,1,242.828,29.319" transform="translate(-27.091 -29.319)" fill="none" stroke="#135cfd" stroke-linecap="round" stroke-linejoin="round" stroke-width="0.642"/>
      <path id="Path_3497" data-name="Path 3497" d="M186.085,441.215a574.849,574.849,0,0,1-89.8-134.694A656.93,656.93,0,0,1,44.331,151.213" transform="translate(-44.331 385.305)" fill="none" stroke="#135cfd" stroke-linecap="round" stroke-linejoin="round" stroke-width="0.642"/>
    </g>
    <path id="Path_3498" data-name="Path 3498" d="M262.988,913.611a116.526,116.526,0,0,0-9.036-21.178,255.125,255.125,0,0,0-14.684-23.72c-5.648-8.189-12.142-16.943-18.919-26.261s-14.119-18.637-21.743-28.238c-11.013-14.119-22.59-29.085-34.45-44.9S141,737.125,129.988,719.9a471.361,471.361,0,0,1-29.65-53.652,313.528,313.528,0,0,1-20.9-57.04,665.948,665.948,0,0,1-20.9-122.552,493.787,493.787,0,0,1,3.389-111.822A428.18,428.18,0,0,1,89.608,274.307a391.986,391.986,0,0,1,51.958-89.231,439.346,439.346,0,0,1,92.9-88.667,589.792,589.792,0,0,1,122.27-66.641" transform="translate(192.006 99.946)" fill="none" stroke="#135cfd" stroke-linecap="round" stroke-linejoin="round" stroke-width="0.642"/>
    <g id="Group_4061" data-name="Group 4061" transform="translate(339.784 134.232)">
      <path id="Path_3499" data-name="Path 3499" d="M80.065,300.183h0l.282-.565v-.565c21.461-51.393,49.416-91.49,81.607-123.4a371.2,371.2,0,0,1,106.739-72.289A569.187,569.187,0,0,1,385.6,66.092c38.968-8.471,77.372-13.837,112.386-18.637,18.355-2.541,35.58-4.8,51.393-7.624s30.5-5.365,43.486-9.036" transform="translate(-68.77 -30.794)" fill="none" stroke="#135cfd" stroke-linecap="round" stroke-linejoin="round" stroke-width="0.642"/>
      <path id="Path_3500" data-name="Path 3500" d="M264.433,510.255h0l.282-.282h0a60.523,60.523,0,0,0,3.388-33.885,138.53,138.53,0,0,0-13.272-37.556,351.81,351.81,0,0,0-25.979-41.51c-10.166-14.684-22.025-29.932-34.168-46.028-20.614-27.391-43.2-57.04-63.817-89.514A516.68,516.68,0,0,1,77.5,154.741" transform="translate(-77.499 390.813)" fill="none" stroke="#135cfd" stroke-linecap="round" stroke-linejoin="round" stroke-width="0.642"/>
    </g>
    <path id="Path_3501" data-name="Path 3501" d="M303.332,706a414.044,414.044,0,0,0-39.25-66.359c-15.248-21.461-32.191-42.922-49.416-64.382-18.072-22.59-36.144-45.18-52.24-68.9A382.409,382.409,0,0,1,121.2,432.942a224.108,224.108,0,0,1-18.072-81.325A236.379,236.379,0,0,1,120.069,259c14.4-37.274,31.909-65.794,52.24-88.1a212.816,212.816,0,0,1,67.771-49.416,319.436,319.436,0,0,1,79.066-23.72c27.673-5.083,56.476-7.907,85.843-11.013,24.285-2.541,49.134-5.083,73.418-8.754a476,476,0,0,0,72.006-16.66" transform="translate(349.326 207.312)" fill="none" stroke="#135cfd" stroke-linecap="round" stroke-linejoin="round" stroke-width="0.642"/>
    <path id="Path_3502" data-name="Path 3502" d="M321.382,740.276a451.327,451.327,0,0,0-42.639-74.265c-16.66-24-35.015-47.439-53.37-70.312-17.507-22.025-34.732-43.769-49.981-65.512a408.324,408.324,0,0,1-38.686-66.076,202.383,202.383,0,0,1-18.072-68.9,171.02,171.02,0,0,1,12.425-74.265,171.34,171.34,0,0,1,40.38-62.123,179.111,179.111,0,0,1,56.193-36.144,328.226,328.226,0,0,1,67.488-18.919c24-4.518,48.851-7.342,74.265-10.448,26.261-3.106,53.652-6.495,81.043-11.3A517.161,517.161,0,0,0,532.6,160.554a340.116,340.116,0,0,0,79.066-41.227,332.081,332.081,0,0,0,71.724-70.312" transform="translate(401.306 165.413)" fill="none" stroke="#135cfd" stroke-linecap="round" stroke-linejoin="round" stroke-width="0.642"/>
    <g id="Group_4062" data-name="Group 4062" transform="translate(586.835 259.608)">
      <path id="Path_3503" data-name="Path 3503" d="M149.753,424.112a143.5,143.5,0,0,1-15.813-53.934,123.155,123.155,0,0,1,9.883-57.888,125.736,125.736,0,0,1,32.756-47.44,143.1,143.1,0,0,1,46.592-27.108,286.878,286.878,0,0,1,57.323-13.554c20.614-3.106,42.357-5.083,65.229-7.059,27.391-2.541,55.911-5.083,84.431-9.6A450.119,450.119,0,0,0,516,185.784a321.057,321.057,0,0,0,83.019-45.463,357.079,357.079,0,0,0,75.96-81.043" transform="translate(-133.628 -59.279)" fill="none" stroke="#135cfd" stroke-linecap="round" stroke-linejoin="round" stroke-width="0.642"/>
      <path id="Path_3504" data-name="Path 3504" d="M269.9,514.68c12.142-40.1,15.813-76.242,13.272-109.563a270.451,270.451,0,0,0-23.72-91.49,439.49,439.49,0,0,0-47.157-78.219c-18.072-24.285-37.839-47.157-57.04-69.183" transform="translate(-60.063 304.499)" fill="none" stroke="#135cfd" stroke-linecap="round" stroke-linejoin="round" stroke-width="0.642"/>
    </g>
    <path id="Path_3505" data-name="Path 3505" d="M361.261,707.474a322.189,322.189,0,0,0,1.977-110.41,370.632,370.632,0,0,0-30.5-97.7,608.192,608.192,0,0,0-49.7-86.125C264.688,386.41,245.2,361,227.131,337.276,214.424,320.616,202,304.8,191.269,289.554c-9.883-13.837-19.2-27.955-27.108-42.921a128.523,128.523,0,0,1-13.837-38.968,64.819,64.819,0,0,1,3.953-35.862h0a69.076,69.076,0,0,1,22.308-28.52,119.416,119.416,0,0,1,35.58-17.507,330.946,330.946,0,0,1,46.31-10.166c16.943-2.541,35.3-4.8,54.781-7.059" transform="translate(506.852 367.925)" fill="none" stroke="#135cfd" stroke-linecap="round" stroke-linejoin="round" stroke-width="0.642"/>
    <path id="Path_3506" data-name="Path 3506" d="M373.729,711.429a360.088,360.088,0,0,0,.565-131.306,419.629,419.629,0,0,0-38.686-113.234,611.264,611.264,0,0,0-59.017-94.032c-20.9-27.955-41.792-52.8-59.864-73.983-9.036-10.448-16.943-20.049-24-28.52A273.185,273.185,0,0,1,175.5,247.2a66.97,66.97,0,0,1-9.036-18.637,22.68,22.68,0,0,1,.282-14.966,15.4,15.4,0,0,1,7.342-7.907,52.97,52.97,0,0,1,14.119-5.083c7.06-1.412,14.4-2.541,21.461-3.389,8.471-.847,18.355-1.977,29.367-2.824,24.567-2.259,54.217-5.083,87.255-10.448a691.315,691.315,0,0,0,106.739-25.7,522.614,522.614,0,0,0,114.363-53.934" transform="translate(561.026 353.522)" fill="none" stroke="#135cfd" stroke-linecap="round" stroke-linejoin="round" stroke-width="0.642"/>
    <path id="Path_3507" data-name="Path 3507" d="M285.411,826.509a396.915,396.915,0,0,0-34.168-55.064c-13.272-18.072-27.673-36.144-42.357-54.5-19.766-24.285-39.815-49.416-58.17-76.242A403.05,403.05,0,0,1,104.689,554.3,277.753,277.753,0,0,1,86.616,452.641c.282-36.992,8.189-77.372,25.979-121.987,18.919-47.44,41.227-83.584,66.359-111.539a256.361,256.361,0,0,1,82.172-61.841,366.876,366.876,0,0,1,92.055-28.8c31.626-5.93,64.1-9.036,96.291-12.142,22.025-2.259,44.051-4.236,65.229-7.342A453.867,453.867,0,0,0,575.978,96.28a235.81,235.81,0,0,0,55.629-23.72,193.124,193.124,0,0,0,48-40.1" transform="translate(293.265 109.112)" fill="none" stroke="#135cfd" stroke-linecap="round" stroke-linejoin="round" stroke-width="0.642"/>
    <path id="Path_3508" data-name="Path 3508" d="M230.942,233.494c-6.777-8.471-12.989-16.1-18.355-23.155a226.447,226.447,0,0,1-13.272-18.919,50.949,50.949,0,0,1-6.777-15.531,20.571,20.571,0,0,1,.847-12.989,15.164,15.164,0,0,1,6.212-7.06,43.581,43.581,0,0,1,11.86-4.8q8.895-2.118,17.79-3.388c7.059-1.13,14.966-1.977,24.284-3.106C274.146,142,299,138.9,326.669,133.249" transform="translate(651.29 451.941)" fill="none" stroke="#135cfd" stroke-linecap="round" stroke-linejoin="round" stroke-width="0.642"/>
  </g>
</svg>
